<mxfile host="app.diagrams.net" modified="2024-05-14T17:58:34.274Z" agent="Mozilla/5.0 (Windows NT 10.0; Win64; x64) AppleWebKit/537.36 (KHTML, like Gecko) Chrome/124.0.0.0 Safari/537.36" etag="zQqzxUwBXeYnb2INp3GG" version="24.4.0" type="device">
  <diagram name="Page-1" id="u4i4Pv790UY53NuOJYmA">
    <mxGraphModel dx="4014" dy="2809" grid="1" gridSize="10" guides="1" tooltips="1" connect="1" arrows="1" fold="1" page="1" pageScale="1" pageWidth="827" pageHeight="1169" math="0" shadow="0">
      <root>
        <mxCell id="0" />
        <mxCell id="1" parent="0" />
        <mxCell id="aoGiOJrlXkaA1kToDqkz-407" value="" style="endArrow=classic;html=1;rounded=0;strokeWidth=2;exitX=0.5;exitY=1;exitDx=0;exitDy=0;" edge="1" parent="1" source="aoGiOJrlXkaA1kToDqkz-408" target="aoGiOJrlXkaA1kToDqkz-411">
          <mxGeometry width="50" height="50" relative="1" as="geometry">
            <mxPoint x="1389.5" y="510" as="sourcePoint" />
            <mxPoint x="1389.5" y="590" as="targetPoint" />
          </mxGeometry>
        </mxCell>
        <mxCell id="aoGiOJrlXkaA1kToDqkz-408" value="&lt;b&gt;&lt;font style=&quot;font-size: 15px;&quot;&gt;Start&lt;/font&gt;&lt;/b&gt;" style="text;html=1;align=center;verticalAlign=middle;whiteSpace=wrap;rounded=0;" vertex="1" parent="1">
          <mxGeometry x="1359.5" y="460" width="60" height="30" as="geometry" />
        </mxCell>
        <mxCell id="aoGiOJrlXkaA1kToDqkz-409" style="edgeStyle=orthogonalEdgeStyle;rounded=0;orthogonalLoop=1;jettySize=auto;html=1;entryX=0.5;entryY=0;entryDx=0;entryDy=0;strokeWidth=3;" edge="1" parent="1" source="aoGiOJrlXkaA1kToDqkz-411" target="aoGiOJrlXkaA1kToDqkz-424">
          <mxGeometry relative="1" as="geometry" />
        </mxCell>
        <mxCell id="aoGiOJrlXkaA1kToDqkz-410" value="&lt;font style=&quot;font-size: 15px;&quot;&gt;&lt;b&gt;F&lt;/b&gt;&lt;/font&gt;" style="edgeLabel;html=1;align=center;verticalAlign=middle;resizable=0;points=[];" vertex="1" connectable="0" parent="aoGiOJrlXkaA1kToDqkz-409">
          <mxGeometry x="-0.6186" y="-1" relative="1" as="geometry">
            <mxPoint x="21" y="-11" as="offset" />
          </mxGeometry>
        </mxCell>
        <mxCell id="aoGiOJrlXkaA1kToDqkz-411" value="up_down==1" style="shape=hexagon;perimeter=hexagonPerimeter2;whiteSpace=wrap;html=1;fixedSize=1;" vertex="1" parent="1">
          <mxGeometry x="1341" y="555" width="99" height="45" as="geometry" />
        </mxCell>
        <mxCell id="aoGiOJrlXkaA1kToDqkz-412" style="edgeStyle=orthogonalEdgeStyle;rounded=0;orthogonalLoop=1;jettySize=auto;html=1;entryX=0.5;entryY=0;entryDx=0;entryDy=0;strokeWidth=3;" edge="1" parent="1" source="aoGiOJrlXkaA1kToDqkz-411" target="aoGiOJrlXkaA1kToDqkz-416">
          <mxGeometry relative="1" as="geometry">
            <mxPoint x="1570" y="650" as="targetPoint" />
          </mxGeometry>
        </mxCell>
        <mxCell id="aoGiOJrlXkaA1kToDqkz-413" value="&lt;b&gt;&lt;font style=&quot;font-size: 15px;&quot;&gt;T&lt;/font&gt;&lt;/b&gt;" style="edgeLabel;html=1;align=center;verticalAlign=middle;resizable=0;points=[];" vertex="1" connectable="0" parent="aoGiOJrlXkaA1kToDqkz-412">
          <mxGeometry x="-0.2705" y="-1" relative="1" as="geometry">
            <mxPoint x="-64" y="-13" as="offset" />
          </mxGeometry>
        </mxCell>
        <mxCell id="aoGiOJrlXkaA1kToDqkz-414" style="edgeStyle=orthogonalEdgeStyle;rounded=0;orthogonalLoop=1;jettySize=auto;html=1;strokeWidth=3;" edge="1" parent="1" source="aoGiOJrlXkaA1kToDqkz-415">
          <mxGeometry relative="1" as="geometry">
            <mxPoint x="1391" y="530" as="targetPoint" />
            <Array as="points">
              <mxPoint x="1580" y="755" />
              <mxPoint x="1580" y="830" />
              <mxPoint x="1780" y="830" />
              <mxPoint x="1780" y="530" />
            </Array>
          </mxGeometry>
        </mxCell>
        <mxCell id="aoGiOJrlXkaA1kToDqkz-415" value="count &amp;lt;= 4&#39;b1001&lt;div&gt;carry &amp;lt;= 1&#39;b1&lt;/div&gt;" style="strokeWidth=2;html=1;shape=mxgraph.flowchart.terminator;whiteSpace=wrap;" vertex="1" parent="1">
          <mxGeometry x="1619" y="730" width="111" height="50" as="geometry" />
        </mxCell>
        <mxCell id="aoGiOJrlXkaA1kToDqkz-416" value="count == 4&#39;b0" style="shape=hexagon;perimeter=hexagonPerimeter2;whiteSpace=wrap;html=1;fixedSize=1;" vertex="1" parent="1">
          <mxGeometry x="1520" y="650" width="99" height="45" as="geometry" />
        </mxCell>
        <mxCell id="aoGiOJrlXkaA1kToDqkz-417" style="edgeStyle=orthogonalEdgeStyle;rounded=0;orthogonalLoop=1;jettySize=auto;html=1;entryX=0.5;entryY=0;entryDx=0;entryDy=0;entryPerimeter=0;exitX=1;exitY=0.5;exitDx=0;exitDy=0;strokeWidth=3;" edge="1" parent="1" source="aoGiOJrlXkaA1kToDqkz-416" target="aoGiOJrlXkaA1kToDqkz-415">
          <mxGeometry relative="1" as="geometry" />
        </mxCell>
        <mxCell id="aoGiOJrlXkaA1kToDqkz-418" value="&lt;span style=&quot;color: rgba(0, 0, 0, 0); font-family: monospace; font-size: 0px; text-align: start; background-color: rgb(251, 251, 251);&quot;&gt;%3CmxGraphModel%3E%3Croot%3E%3CmxCell%20id%3D%220%22%2F%3E%3CmxCell%20id%3D%221%22%20parent%3D%220%22%2F%3E%3CmxCell%20id%3D%222%22%20value%3D%22%26lt%3Bb%26gt%3B%26lt%3Bfont%20style%3D%26quot%3Bfont-size%3A%2013px%3B%26quot%3B%26gt%3BT%26lt%3B%2Ffont%26gt%3B%26lt%3B%2Fb%26gt%3B%22%20style%3D%22edgeLabel%3Bhtml%3D1%3Balign%3Dcenter%3BverticalAlign%3Dmiddle%3Bresizable%3D0%3Bpoints%3D%5B%5D%3B%22%20vertex%3D%221%22%20connectable%3D%220%22%20parent%3D%221%22%3E%3CmxGeometry%20x%3D%221270.5%22%20y%3D%22600.5%22%20as%3D%22geometry%22%2F%3E%3C%2FmxCell%3E%3C%2Froot%3E%3C%2FmxGraphModel%3E&lt;/span&gt;" style="edgeLabel;html=1;align=center;verticalAlign=middle;resizable=0;points=[];" vertex="1" connectable="0" parent="aoGiOJrlXkaA1kToDqkz-417">
          <mxGeometry x="-0.6923" y="2" relative="1" as="geometry">
            <mxPoint y="1" as="offset" />
          </mxGeometry>
        </mxCell>
        <mxCell id="aoGiOJrlXkaA1kToDqkz-419" value="&lt;font style=&quot;font-size: 15px;&quot;&gt;&lt;b&gt;T&lt;/b&gt;&lt;/font&gt;" style="edgeLabel;html=1;align=center;verticalAlign=middle;resizable=0;points=[];" vertex="1" connectable="0" parent="aoGiOJrlXkaA1kToDqkz-417">
          <mxGeometry x="-0.6283" y="-3" relative="1" as="geometry">
            <mxPoint x="-10" y="-15" as="offset" />
          </mxGeometry>
        </mxCell>
        <mxCell id="aoGiOJrlXkaA1kToDqkz-420" value="count &amp;lt;= count - 4&#39;b1&lt;div&gt;carry &amp;lt;= 4&#39;b0&lt;/div&gt;" style="strokeWidth=2;html=1;shape=mxgraph.flowchart.terminator;whiteSpace=wrap;" vertex="1" parent="1">
          <mxGeometry x="1410" y="730" width="132" height="50" as="geometry" />
        </mxCell>
        <mxCell id="aoGiOJrlXkaA1kToDqkz-421" style="edgeStyle=orthogonalEdgeStyle;rounded=0;orthogonalLoop=1;jettySize=auto;html=1;entryX=0.441;entryY=-0.04;entryDx=0;entryDy=0;entryPerimeter=0;exitX=0;exitY=0.5;exitDx=0;exitDy=0;strokeWidth=3;" edge="1" parent="1" source="aoGiOJrlXkaA1kToDqkz-416" target="aoGiOJrlXkaA1kToDqkz-420">
          <mxGeometry relative="1" as="geometry" />
        </mxCell>
        <mxCell id="aoGiOJrlXkaA1kToDqkz-422" value="&lt;b&gt;&lt;font style=&quot;font-size: 15px;&quot;&gt;F&lt;/font&gt;&lt;/b&gt;" style="edgeLabel;html=1;align=center;verticalAlign=middle;resizable=0;points=[];" vertex="1" connectable="0" parent="aoGiOJrlXkaA1kToDqkz-421">
          <mxGeometry x="-0.7204" y="-1" relative="1" as="geometry">
            <mxPoint x="5" y="-11" as="offset" />
          </mxGeometry>
        </mxCell>
        <mxCell id="aoGiOJrlXkaA1kToDqkz-423" value="count &amp;lt;= 4&#39;0&lt;div&gt;carry &amp;lt;= 1&#39;b1&lt;/div&gt;" style="strokeWidth=2;html=1;shape=mxgraph.flowchart.terminator;whiteSpace=wrap;" vertex="1" parent="1">
          <mxGeometry x="1269" y="730" width="111" height="50" as="geometry" />
        </mxCell>
        <mxCell id="aoGiOJrlXkaA1kToDqkz-424" value="count == 4&#39;b1001" style="shape=hexagon;perimeter=hexagonPerimeter2;whiteSpace=wrap;html=1;fixedSize=1;" vertex="1" parent="1">
          <mxGeometry x="1170" y="650" width="110" height="45" as="geometry" />
        </mxCell>
        <mxCell id="aoGiOJrlXkaA1kToDqkz-425" style="edgeStyle=orthogonalEdgeStyle;rounded=0;orthogonalLoop=1;jettySize=auto;html=1;entryX=0.5;entryY=0;entryDx=0;entryDy=0;entryPerimeter=0;exitX=1;exitY=0.5;exitDx=0;exitDy=0;strokeWidth=3;" edge="1" parent="1" source="aoGiOJrlXkaA1kToDqkz-424" target="aoGiOJrlXkaA1kToDqkz-423">
          <mxGeometry relative="1" as="geometry" />
        </mxCell>
        <mxCell id="aoGiOJrlXkaA1kToDqkz-426" value="&lt;span style=&quot;color: rgba(0, 0, 0, 0); font-family: monospace; font-size: 0px; text-align: start; background-color: rgb(251, 251, 251);&quot;&gt;%3CmxGraphModel%3E%3Croot%3E%3CmxCell%20id%3D%220%22%2F%3E%3CmxCell%20id%3D%221%22%20parent%3D%220%22%2F%3E%3CmxCell%20id%3D%222%22%20value%3D%22%26lt%3Bb%26gt%3B%26lt%3Bfont%20style%3D%26quot%3Bfont-size%3A%2013px%3B%26quot%3B%26gt%3BT%26lt%3B%2Ffont%26gt%3B%26lt%3B%2Fb%26gt%3B%22%20style%3D%22edgeLabel%3Bhtml%3D1%3Balign%3Dcenter%3BverticalAlign%3Dmiddle%3Bresizable%3D0%3Bpoints%3D%5B%5D%3B%22%20vertex%3D%221%22%20connectable%3D%220%22%20parent%3D%221%22%3E%3CmxGeometry%20x%3D%221270.5%22%20y%3D%22600.5%22%20as%3D%22geometry%22%2F%3E%3C%2FmxCell%3E%3C%2Froot%3E%3C%2FmxGraphModel%3E&lt;/span&gt;" style="edgeLabel;html=1;align=center;verticalAlign=middle;resizable=0;points=[];" vertex="1" connectable="0" parent="aoGiOJrlXkaA1kToDqkz-425">
          <mxGeometry x="-0.6923" y="2" relative="1" as="geometry">
            <mxPoint y="1" as="offset" />
          </mxGeometry>
        </mxCell>
        <mxCell id="aoGiOJrlXkaA1kToDqkz-427" style="edgeStyle=orthogonalEdgeStyle;rounded=0;orthogonalLoop=1;jettySize=auto;html=1;exitX=1;exitY=0.5;exitDx=0;exitDy=0;exitPerimeter=0;strokeWidth=3;" edge="1" parent="1">
          <mxGeometry relative="1" as="geometry">
            <mxPoint x="1191.5" y="755" as="sourcePoint" />
            <mxPoint x="1389.5" y="530" as="targetPoint" />
            <Array as="points">
              <mxPoint x="1230" y="755" />
              <mxPoint x="1230" y="830" />
              <mxPoint x="1030" y="830" />
              <mxPoint x="1030" y="530" />
            </Array>
          </mxGeometry>
        </mxCell>
        <mxCell id="aoGiOJrlXkaA1kToDqkz-428" value="count &amp;lt;= count + 4&#39;b1&lt;div&gt;carry &amp;lt;= 4&#39;b0&lt;/div&gt;" style="strokeWidth=2;html=1;shape=mxgraph.flowchart.terminator;whiteSpace=wrap;" vertex="1" parent="1">
          <mxGeometry x="1060" y="730" width="132" height="50" as="geometry" />
        </mxCell>
        <mxCell id="aoGiOJrlXkaA1kToDqkz-429" style="edgeStyle=orthogonalEdgeStyle;rounded=0;orthogonalLoop=1;jettySize=auto;html=1;entryX=0.441;entryY=-0.04;entryDx=0;entryDy=0;entryPerimeter=0;exitX=0;exitY=0.5;exitDx=0;exitDy=0;strokeWidth=3;" edge="1" parent="1" source="aoGiOJrlXkaA1kToDqkz-424" target="aoGiOJrlXkaA1kToDqkz-428">
          <mxGeometry relative="1" as="geometry" />
        </mxCell>
        <mxCell id="aoGiOJrlXkaA1kToDqkz-430" value="&lt;b&gt;&lt;font style=&quot;font-size: 15px;&quot;&gt;F&lt;/font&gt;&lt;/b&gt;" style="edgeLabel;html=1;align=center;verticalAlign=middle;resizable=0;points=[];" vertex="1" connectable="0" parent="1">
          <mxGeometry x="1179.5" y="650" as="geometry">
            <mxPoint x="-12" y="2" as="offset" />
          </mxGeometry>
        </mxCell>
        <mxCell id="aoGiOJrlXkaA1kToDqkz-431" value="&lt;font style=&quot;font-size: 15px;&quot;&gt;&lt;b&gt;T&lt;/b&gt;&lt;/font&gt;" style="edgeLabel;html=1;align=center;verticalAlign=middle;resizable=0;points=[];" vertex="1" connectable="0" parent="1">
          <mxGeometry x="1260" y="650" as="geometry">
            <mxPoint x="18" y="4" as="offset" />
          </mxGeometry>
        </mxCell>
        <mxCell id="aoGiOJrlXkaA1kToDqkz-432" value="" style="endArrow=none;html=1;rounded=0;entryX=0;entryY=0.5;entryDx=0;entryDy=0;entryPerimeter=0;strokeWidth=3;" edge="1" parent="1" target="aoGiOJrlXkaA1kToDqkz-423">
          <mxGeometry width="50" height="50" relative="1" as="geometry">
            <mxPoint x="1230" y="755" as="sourcePoint" />
            <mxPoint x="1510" y="530" as="targetPoint" />
          </mxGeometry>
        </mxCell>
        <mxCell id="aoGiOJrlXkaA1kToDqkz-433" value="" style="endArrow=none;html=1;rounded=0;entryX=0;entryY=0.5;entryDx=0;entryDy=0;entryPerimeter=0;strokeWidth=3;" edge="1" parent="1">
          <mxGeometry width="50" height="50" relative="1" as="geometry">
            <mxPoint x="1542" y="754.5" as="sourcePoint" />
            <mxPoint x="1581" y="754.5" as="targetPoint" />
          </mxGeometry>
        </mxCell>
        <mxCell id="aoGiOJrlXkaA1kToDqkz-434" value="" style="endArrow=none;dashed=1;html=1;dashPattern=1 3;strokeWidth=2;rounded=0;" edge="1" parent="1">
          <mxGeometry width="50" height="50" relative="1" as="geometry">
            <mxPoint x="1050" y="550" as="sourcePoint" />
            <mxPoint x="1750" y="550" as="targetPoint" />
          </mxGeometry>
        </mxCell>
        <mxCell id="aoGiOJrlXkaA1kToDqkz-435" value="" style="endArrow=none;dashed=1;html=1;dashPattern=1 3;strokeWidth=2;rounded=0;" edge="1" parent="1">
          <mxGeometry width="50" height="50" relative="1" as="geometry">
            <mxPoint x="1750" y="810" as="sourcePoint" />
            <mxPoint x="1750" y="550" as="targetPoint" />
          </mxGeometry>
        </mxCell>
        <mxCell id="aoGiOJrlXkaA1kToDqkz-436" value="" style="endArrow=none;dashed=1;html=1;dashPattern=1 3;strokeWidth=2;rounded=0;" edge="1" parent="1">
          <mxGeometry width="50" height="50" relative="1" as="geometry">
            <mxPoint x="1050" y="810" as="sourcePoint" />
            <mxPoint x="1750" y="810" as="targetPoint" />
          </mxGeometry>
        </mxCell>
        <mxCell id="aoGiOJrlXkaA1kToDqkz-437" value="" style="endArrow=none;dashed=1;html=1;dashPattern=1 3;strokeWidth=2;rounded=0;" edge="1" parent="1">
          <mxGeometry width="50" height="50" relative="1" as="geometry">
            <mxPoint x="1050" y="560" as="sourcePoint" />
            <mxPoint x="1050" y="810" as="targetPoint" />
          </mxGeometry>
        </mxCell>
        <mxCell id="aoGiOJrlXkaA1kToDqkz-438" value="" style="endArrow=classic;html=1;rounded=0;strokeWidth=2;exitX=0.5;exitY=1;exitDx=0;exitDy=0;" edge="1" parent="1" target="aoGiOJrlXkaA1kToDqkz-441">
          <mxGeometry width="50" height="50" relative="1" as="geometry">
            <mxPoint x="159.94000000000005" y="510" as="sourcePoint" />
            <mxPoint x="159.44000000000005" y="610" as="targetPoint" />
          </mxGeometry>
        </mxCell>
        <mxCell id="aoGiOJrlXkaA1kToDqkz-439" style="edgeStyle=orthogonalEdgeStyle;rounded=0;orthogonalLoop=1;jettySize=auto;html=1;entryX=0.5;entryY=0;entryDx=0;entryDy=0;strokeWidth=3;" edge="1" parent="1" source="aoGiOJrlXkaA1kToDqkz-441" target="aoGiOJrlXkaA1kToDqkz-454">
          <mxGeometry relative="1" as="geometry" />
        </mxCell>
        <mxCell id="aoGiOJrlXkaA1kToDqkz-440" value="&lt;font style=&quot;font-size: 15px;&quot;&gt;&lt;b&gt;F&lt;/b&gt;&lt;/font&gt;" style="edgeLabel;html=1;align=center;verticalAlign=middle;resizable=0;points=[];" vertex="1" connectable="0" parent="aoGiOJrlXkaA1kToDqkz-439">
          <mxGeometry x="-0.6186" y="-1" relative="1" as="geometry">
            <mxPoint x="21" y="-11" as="offset" />
          </mxGeometry>
        </mxCell>
        <mxCell id="aoGiOJrlXkaA1kToDqkz-441" value="up_down==1" style="shape=hexagon;perimeter=hexagonPerimeter2;whiteSpace=wrap;html=1;fixedSize=1;" vertex="1" parent="1">
          <mxGeometry x="110.94000000000005" y="575" width="99" height="45" as="geometry" />
        </mxCell>
        <mxCell id="aoGiOJrlXkaA1kToDqkz-442" style="edgeStyle=orthogonalEdgeStyle;rounded=0;orthogonalLoop=1;jettySize=auto;html=1;entryX=0.5;entryY=0;entryDx=0;entryDy=0;strokeWidth=3;" edge="1" parent="1" source="aoGiOJrlXkaA1kToDqkz-441" target="aoGiOJrlXkaA1kToDqkz-446">
          <mxGeometry relative="1" as="geometry">
            <mxPoint x="339.94000000000005" y="670" as="targetPoint" />
          </mxGeometry>
        </mxCell>
        <mxCell id="aoGiOJrlXkaA1kToDqkz-443" value="&lt;b&gt;&lt;font style=&quot;font-size: 15px;&quot;&gt;T&lt;/font&gt;&lt;/b&gt;" style="edgeLabel;html=1;align=center;verticalAlign=middle;resizable=0;points=[];" vertex="1" connectable="0" parent="aoGiOJrlXkaA1kToDqkz-442">
          <mxGeometry x="-0.2705" y="-1" relative="1" as="geometry">
            <mxPoint x="-64" y="-13" as="offset" />
          </mxGeometry>
        </mxCell>
        <mxCell id="aoGiOJrlXkaA1kToDqkz-444" style="edgeStyle=orthogonalEdgeStyle;rounded=0;orthogonalLoop=1;jettySize=auto;html=1;entryX=0.5;entryY=0;entryDx=0;entryDy=0;exitX=0;exitY=0.5;exitDx=0;exitDy=0;exitPerimeter=0;strokeWidth=3;" edge="1" parent="1" source="aoGiOJrlXkaA1kToDqkz-445" target="aoGiOJrlXkaA1kToDqkz-467">
          <mxGeometry relative="1" as="geometry" />
        </mxCell>
        <mxCell id="aoGiOJrlXkaA1kToDqkz-445" value="count10 &amp;lt;= 4&#39;b0&lt;div&gt;carry10 &amp;lt;= 1&#39;b1&lt;/div&gt;" style="strokeWidth=2;html=1;shape=mxgraph.flowchart.terminator;whiteSpace=wrap;" vertex="1" parent="1">
          <mxGeometry x="388.94000000000005" y="750" width="111" height="50" as="geometry" />
        </mxCell>
        <mxCell id="aoGiOJrlXkaA1kToDqkz-446" value="count10 == 4&#39;b1001" style="shape=hexagon;perimeter=hexagonPerimeter2;whiteSpace=wrap;html=1;fixedSize=1;" vertex="1" parent="1">
          <mxGeometry x="280" y="670" width="120.06" height="45" as="geometry" />
        </mxCell>
        <mxCell id="aoGiOJrlXkaA1kToDqkz-447" style="edgeStyle=orthogonalEdgeStyle;rounded=0;orthogonalLoop=1;jettySize=auto;html=1;entryX=0.5;entryY=0;entryDx=0;entryDy=0;entryPerimeter=0;exitX=1;exitY=0.5;exitDx=0;exitDy=0;strokeWidth=3;" edge="1" parent="1" source="aoGiOJrlXkaA1kToDqkz-446" target="aoGiOJrlXkaA1kToDqkz-445">
          <mxGeometry relative="1" as="geometry" />
        </mxCell>
        <mxCell id="aoGiOJrlXkaA1kToDqkz-448" value="&lt;span style=&quot;color: rgba(0, 0, 0, 0); font-family: monospace; font-size: 0px; text-align: start; background-color: rgb(251, 251, 251);&quot;&gt;%3CmxGraphModel%3E%3Croot%3E%3CmxCell%20id%3D%220%22%2F%3E%3CmxCell%20id%3D%221%22%20parent%3D%220%22%2F%3E%3CmxCell%20id%3D%222%22%20value%3D%22%26lt%3Bb%26gt%3B%26lt%3Bfont%20style%3D%26quot%3Bfont-size%3A%2013px%3B%26quot%3B%26gt%3BT%26lt%3B%2Ffont%26gt%3B%26lt%3B%2Fb%26gt%3B%22%20style%3D%22edgeLabel%3Bhtml%3D1%3Balign%3Dcenter%3BverticalAlign%3Dmiddle%3Bresizable%3D0%3Bpoints%3D%5B%5D%3B%22%20vertex%3D%221%22%20connectable%3D%220%22%20parent%3D%221%22%3E%3CmxGeometry%20x%3D%221270.5%22%20y%3D%22600.5%22%20as%3D%22geometry%22%2F%3E%3C%2FmxCell%3E%3C%2Froot%3E%3C%2FmxGraphModel%3E&lt;/span&gt;" style="edgeLabel;html=1;align=center;verticalAlign=middle;resizable=0;points=[];" vertex="1" connectable="0" parent="aoGiOJrlXkaA1kToDqkz-447">
          <mxGeometry x="-0.6923" y="2" relative="1" as="geometry">
            <mxPoint y="1" as="offset" />
          </mxGeometry>
        </mxCell>
        <mxCell id="aoGiOJrlXkaA1kToDqkz-449" value="&lt;font style=&quot;font-size: 15px;&quot;&gt;&lt;b&gt;T&lt;/b&gt;&lt;/font&gt;" style="edgeLabel;html=1;align=center;verticalAlign=middle;resizable=0;points=[];" vertex="1" connectable="0" parent="aoGiOJrlXkaA1kToDqkz-447">
          <mxGeometry x="-0.6283" y="-3" relative="1" as="geometry">
            <mxPoint x="-10" y="-15" as="offset" />
          </mxGeometry>
        </mxCell>
        <mxCell id="aoGiOJrlXkaA1kToDqkz-450" value="count10 &amp;lt;= count 10 + 4&#39;b1&lt;div&gt;carry10 &amp;lt;= 1&#39;b0&lt;/div&gt;" style="strokeWidth=2;html=1;shape=mxgraph.flowchart.terminator;whiteSpace=wrap;" vertex="1" parent="1">
          <mxGeometry x="161" y="750" width="159" height="50" as="geometry" />
        </mxCell>
        <mxCell id="aoGiOJrlXkaA1kToDqkz-451" style="edgeStyle=orthogonalEdgeStyle;rounded=0;orthogonalLoop=1;jettySize=auto;html=1;entryX=0.441;entryY=-0.04;entryDx=0;entryDy=0;entryPerimeter=0;exitX=0;exitY=0.5;exitDx=0;exitDy=0;strokeWidth=3;" edge="1" parent="1" source="aoGiOJrlXkaA1kToDqkz-446" target="aoGiOJrlXkaA1kToDqkz-450">
          <mxGeometry relative="1" as="geometry" />
        </mxCell>
        <mxCell id="aoGiOJrlXkaA1kToDqkz-452" value="&lt;b&gt;&lt;font style=&quot;font-size: 15px;&quot;&gt;F&lt;/font&gt;&lt;/b&gt;" style="edgeLabel;html=1;align=center;verticalAlign=middle;resizable=0;points=[];" vertex="1" connectable="0" parent="aoGiOJrlXkaA1kToDqkz-451">
          <mxGeometry x="-0.7204" y="-1" relative="1" as="geometry">
            <mxPoint x="-195" y="148" as="offset" />
          </mxGeometry>
        </mxCell>
        <mxCell id="aoGiOJrlXkaA1kToDqkz-453" value="count10 &amp;lt;= 4&#39;b1001&lt;div&gt;carry10 &amp;lt;= 1&#39;b1&lt;/div&gt;" style="strokeWidth=2;html=1;shape=mxgraph.flowchart.terminator;whiteSpace=wrap;" vertex="1" parent="1">
          <mxGeometry x="30" y="750" width="119.94" height="50" as="geometry" />
        </mxCell>
        <mxCell id="aoGiOJrlXkaA1kToDqkz-454" value="count10 == 4&#39;b0" style="shape=hexagon;perimeter=hexagonPerimeter2;whiteSpace=wrap;html=1;fixedSize=1;" vertex="1" parent="1">
          <mxGeometry x="-60.059999999999945" y="670" width="99" height="45" as="geometry" />
        </mxCell>
        <mxCell id="aoGiOJrlXkaA1kToDqkz-455" style="edgeStyle=orthogonalEdgeStyle;rounded=0;orthogonalLoop=1;jettySize=auto;html=1;entryX=0.5;entryY=0;entryDx=0;entryDy=0;entryPerimeter=0;exitX=1;exitY=0.5;exitDx=0;exitDy=0;strokeWidth=3;" edge="1" parent="1" source="aoGiOJrlXkaA1kToDqkz-454" target="aoGiOJrlXkaA1kToDqkz-453">
          <mxGeometry relative="1" as="geometry" />
        </mxCell>
        <mxCell id="aoGiOJrlXkaA1kToDqkz-456" value="&lt;span style=&quot;color: rgba(0, 0, 0, 0); font-family: monospace; font-size: 0px; text-align: start; background-color: rgb(251, 251, 251);&quot;&gt;%3CmxGraphModel%3E%3Croot%3E%3CmxCell%20id%3D%220%22%2F%3E%3CmxCell%20id%3D%221%22%20parent%3D%220%22%2F%3E%3CmxCell%20id%3D%222%22%20value%3D%22%26lt%3Bb%26gt%3B%26lt%3Bfont%20style%3D%26quot%3Bfont-size%3A%2013px%3B%26quot%3B%26gt%3BT%26lt%3B%2Ffont%26gt%3B%26lt%3B%2Fb%26gt%3B%22%20style%3D%22edgeLabel%3Bhtml%3D1%3Balign%3Dcenter%3BverticalAlign%3Dmiddle%3Bresizable%3D0%3Bpoints%3D%5B%5D%3B%22%20vertex%3D%221%22%20connectable%3D%220%22%20parent%3D%221%22%3E%3CmxGeometry%20x%3D%221270.5%22%20y%3D%22600.5%22%20as%3D%22geometry%22%2F%3E%3C%2FmxCell%3E%3C%2Froot%3E%3C%2FmxGraphModel%3E&lt;/span&gt;" style="edgeLabel;html=1;align=center;verticalAlign=middle;resizable=0;points=[];" vertex="1" connectable="0" parent="aoGiOJrlXkaA1kToDqkz-455">
          <mxGeometry x="-0.6923" y="2" relative="1" as="geometry">
            <mxPoint y="1" as="offset" />
          </mxGeometry>
        </mxCell>
        <mxCell id="aoGiOJrlXkaA1kToDqkz-457" style="edgeStyle=orthogonalEdgeStyle;rounded=0;orthogonalLoop=1;jettySize=auto;html=1;entryX=0.5;entryY=0;entryDx=0;entryDy=0;exitX=1;exitY=0.5;exitDx=0;exitDy=0;exitPerimeter=0;strokeWidth=3;" edge="1" parent="1" source="aoGiOJrlXkaA1kToDqkz-458" target="aoGiOJrlXkaA1kToDqkz-477">
          <mxGeometry relative="1" as="geometry" />
        </mxCell>
        <mxCell id="aoGiOJrlXkaA1kToDqkz-458" value="count10 &amp;lt;= count10 - 4&#39;b1&lt;div&gt;carry10 &amp;lt;= 0&lt;/div&gt;" style="strokeWidth=2;html=1;shape=mxgraph.flowchart.terminator;whiteSpace=wrap;" vertex="1" parent="1">
          <mxGeometry x="-190" y="750" width="152" height="50" as="geometry" />
        </mxCell>
        <mxCell id="aoGiOJrlXkaA1kToDqkz-459" style="edgeStyle=orthogonalEdgeStyle;rounded=0;orthogonalLoop=1;jettySize=auto;html=1;entryX=0.441;entryY=-0.04;entryDx=0;entryDy=0;entryPerimeter=0;exitX=0;exitY=0.5;exitDx=0;exitDy=0;strokeWidth=3;" edge="1" parent="1" source="aoGiOJrlXkaA1kToDqkz-454" target="aoGiOJrlXkaA1kToDqkz-458">
          <mxGeometry relative="1" as="geometry" />
        </mxCell>
        <mxCell id="aoGiOJrlXkaA1kToDqkz-460" value="&lt;b&gt;&lt;font style=&quot;font-size: 15px;&quot;&gt;F&lt;/font&gt;&lt;/b&gt;" style="edgeLabel;html=1;align=center;verticalAlign=middle;resizable=0;points=[];" vertex="1" connectable="0" parent="1">
          <mxGeometry x="-60.059999999999945" y="680" as="geometry">
            <mxPoint x="-12" y="2" as="offset" />
          </mxGeometry>
        </mxCell>
        <mxCell id="aoGiOJrlXkaA1kToDqkz-461" value="&lt;font style=&quot;font-size: 15px;&quot;&gt;&lt;b&gt;T&lt;/b&gt;&lt;/font&gt;" style="edgeLabel;html=1;align=center;verticalAlign=middle;resizable=0;points=[];" vertex="1" connectable="0" parent="1">
          <mxGeometry x="39.940000000000055" y="680" as="geometry" />
        </mxCell>
        <mxCell id="aoGiOJrlXkaA1kToDqkz-462" value="" style="endArrow=none;html=1;rounded=0;entryX=0;entryY=0.5;entryDx=0;entryDy=0;entryPerimeter=0;strokeWidth=3;" edge="1" parent="1" target="aoGiOJrlXkaA1kToDqkz-453">
          <mxGeometry width="50" height="50" relative="1" as="geometry">
            <mxPoint x="-10" y="775" as="sourcePoint" />
            <mxPoint x="279.94000000000005" y="550" as="targetPoint" />
          </mxGeometry>
        </mxCell>
        <mxCell id="aoGiOJrlXkaA1kToDqkz-463" value="" style="endArrow=none;html=1;rounded=0;entryX=0;entryY=0.5;entryDx=0;entryDy=0;entryPerimeter=0;strokeWidth=3;" edge="1" parent="1">
          <mxGeometry width="50" height="50" relative="1" as="geometry">
            <mxPoint x="320.00000000000006" y="774.44" as="sourcePoint" />
            <mxPoint x="359.00000000000006" y="774.44" as="targetPoint" />
            <Array as="points">
              <mxPoint x="359.06" y="774.94" />
            </Array>
          </mxGeometry>
        </mxCell>
        <mxCell id="aoGiOJrlXkaA1kToDqkz-464" value="" style="endArrow=none;dashed=1;html=1;dashPattern=1 3;strokeWidth=2;rounded=0;" edge="1" parent="1">
          <mxGeometry width="50" height="50" relative="1" as="geometry">
            <mxPoint x="-280" y="570" as="sourcePoint" />
            <mxPoint x="640" y="570" as="targetPoint" />
          </mxGeometry>
        </mxCell>
        <mxCell id="aoGiOJrlXkaA1kToDqkz-465" value="" style="endArrow=none;dashed=1;html=1;dashPattern=1 3;strokeWidth=2;rounded=0;" edge="1" parent="1">
          <mxGeometry width="50" height="50" relative="1" as="geometry">
            <mxPoint x="640" y="1090" as="sourcePoint" />
            <mxPoint x="640" y="570" as="targetPoint" />
          </mxGeometry>
        </mxCell>
        <mxCell id="aoGiOJrlXkaA1kToDqkz-466" value="&lt;b&gt;&lt;font style=&quot;font-size: 15px;&quot;&gt;Start&lt;/font&gt;&lt;/b&gt;" style="text;html=1;align=center;verticalAlign=middle;whiteSpace=wrap;rounded=0;" vertex="1" parent="1">
          <mxGeometry x="130" y="480" width="60" height="30" as="geometry" />
        </mxCell>
        <mxCell id="aoGiOJrlXkaA1kToDqkz-467" value="carry10 == 1&#39;b1" style="shape=hexagon;perimeter=hexagonPerimeter2;whiteSpace=wrap;html=1;fixedSize=1;" vertex="1" parent="1">
          <mxGeometry x="290.00000000000006" y="840" width="99" height="45" as="geometry" />
        </mxCell>
        <mxCell id="aoGiOJrlXkaA1kToDqkz-468" style="edgeStyle=orthogonalEdgeStyle;rounded=0;orthogonalLoop=1;jettySize=auto;html=1;exitX=0;exitY=0.5;exitDx=0;exitDy=0;exitPerimeter=0;strokeWidth=3;" edge="1" parent="1" source="aoGiOJrlXkaA1kToDqkz-469">
          <mxGeometry relative="1" as="geometry">
            <mxPoint x="160" y="555" as="targetPoint" />
            <Array as="points">
              <mxPoint x="450" y="1031" />
              <mxPoint x="450" y="1120" />
              <mxPoint x="690" y="1120" />
              <mxPoint x="690" y="555" />
              <mxPoint x="173" y="555" />
            </Array>
          </mxGeometry>
        </mxCell>
        <mxCell id="aoGiOJrlXkaA1kToDqkz-469" value="count100 &amp;lt;= 4&#39;b0&lt;div&gt;carry100 &amp;lt;= 1&#39;b1&lt;/div&gt;" style="strokeWidth=2;html=1;shape=mxgraph.flowchart.terminator;whiteSpace=wrap;" vertex="1" parent="1">
          <mxGeometry x="516.1200000000001" y="1005.5" width="111" height="50" as="geometry" />
        </mxCell>
        <mxCell id="aoGiOJrlXkaA1kToDqkz-470" value="count100 &amp;lt;= count 100 + 4&#39;b1&lt;div&gt;carry100 &amp;lt;= 1&#39;b0&lt;/div&gt;" style="strokeWidth=2;html=1;shape=mxgraph.flowchart.terminator;whiteSpace=wrap;" vertex="1" parent="1">
          <mxGeometry x="240" y="1005.5" width="170.06" height="50" as="geometry" />
        </mxCell>
        <mxCell id="aoGiOJrlXkaA1kToDqkz-471" style="edgeStyle=orthogonalEdgeStyle;rounded=0;orthogonalLoop=1;jettySize=auto;html=1;entryX=0.5;entryY=0;entryDx=0;entryDy=0;entryPerimeter=0;strokeWidth=3;exitX=1;exitY=0.5;exitDx=0;exitDy=0;" edge="1" parent="1" source="aoGiOJrlXkaA1kToDqkz-476">
          <mxGeometry relative="1" as="geometry">
            <mxPoint x="510.05999999999995" y="949.5" as="sourcePoint" />
            <mxPoint x="573.06" y="1005.5" as="targetPoint" />
          </mxGeometry>
        </mxCell>
        <mxCell id="aoGiOJrlXkaA1kToDqkz-472" value="&lt;span style=&quot;color: rgba(0, 0, 0, 0); font-family: monospace; font-size: 0px; text-align: start; background-color: rgb(251, 251, 251);&quot;&gt;%3CmxGraphModel%3E%3Croot%3E%3CmxCell%20id%3D%220%22%2F%3E%3CmxCell%20id%3D%221%22%20parent%3D%220%22%2F%3E%3CmxCell%20id%3D%222%22%20value%3D%22%26lt%3Bb%26gt%3B%26lt%3Bfont%20style%3D%26quot%3Bfont-size%3A%2013px%3B%26quot%3B%26gt%3BT%26lt%3B%2Ffont%26gt%3B%26lt%3B%2Fb%26gt%3B%22%20style%3D%22edgeLabel%3Bhtml%3D1%3Balign%3Dcenter%3BverticalAlign%3Dmiddle%3Bresizable%3D0%3Bpoints%3D%5B%5D%3B%22%20vertex%3D%221%22%20connectable%3D%220%22%20parent%3D%221%22%3E%3CmxGeometry%20x%3D%221270.5%22%20y%3D%22600.5%22%20as%3D%22geometry%22%2F%3E%3C%2FmxCell%3E%3C%2Froot%3E%3C%2FmxGraphModel%3E&lt;/span&gt;" style="edgeLabel;html=1;align=center;verticalAlign=middle;resizable=0;points=[];" vertex="1" connectable="0" parent="aoGiOJrlXkaA1kToDqkz-471">
          <mxGeometry x="-0.6923" y="2" relative="1" as="geometry">
            <mxPoint y="1" as="offset" />
          </mxGeometry>
        </mxCell>
        <mxCell id="aoGiOJrlXkaA1kToDqkz-473" value="&lt;font style=&quot;font-size: 15px;&quot;&gt;&lt;b&gt;T&lt;/b&gt;&lt;/font&gt;" style="edgeLabel;html=1;align=center;verticalAlign=middle;resizable=0;points=[];" vertex="1" connectable="0" parent="aoGiOJrlXkaA1kToDqkz-471">
          <mxGeometry x="-0.6283" y="-3" relative="1" as="geometry">
            <mxPoint x="-10" y="-15" as="offset" />
          </mxGeometry>
        </mxCell>
        <mxCell id="aoGiOJrlXkaA1kToDqkz-474" style="edgeStyle=orthogonalEdgeStyle;rounded=0;orthogonalLoop=1;jettySize=auto;html=1;entryX=0.441;entryY=-0.04;entryDx=0;entryDy=0;entryPerimeter=0;exitX=0;exitY=0.5;exitDx=0;exitDy=0;strokeWidth=3;" edge="1" parent="1" source="aoGiOJrlXkaA1kToDqkz-476">
          <mxGeometry relative="1" as="geometry">
            <mxPoint x="359" y="948.5" as="sourcePoint" />
            <mxPoint x="310" y="1003.5" as="targetPoint" />
          </mxGeometry>
        </mxCell>
        <mxCell id="aoGiOJrlXkaA1kToDqkz-475" value="&lt;b&gt;&lt;font style=&quot;font-size: 15px;&quot;&gt;F&lt;/font&gt;&lt;/b&gt;" style="edgeLabel;html=1;align=center;verticalAlign=middle;resizable=0;points=[];" vertex="1" connectable="0" parent="aoGiOJrlXkaA1kToDqkz-474">
          <mxGeometry x="-0.7204" y="-1" relative="1" as="geometry">
            <mxPoint x="5" y="-11" as="offset" />
          </mxGeometry>
        </mxCell>
        <mxCell id="aoGiOJrlXkaA1kToDqkz-476" value="count100 == 4&#39;b1001" style="shape=hexagon;perimeter=hexagonPerimeter2;whiteSpace=wrap;html=1;fixedSize=1;" vertex="1" parent="1">
          <mxGeometry x="370.06" y="928.5" width="129" height="45" as="geometry" />
        </mxCell>
        <mxCell id="aoGiOJrlXkaA1kToDqkz-477" value="carry10 == 1&#39;b1" style="shape=hexagon;perimeter=hexagonPerimeter2;whiteSpace=wrap;html=1;fixedSize=1;" vertex="1" parent="1">
          <mxGeometry x="-39.11999999999993" y="840" width="99" height="45" as="geometry" />
        </mxCell>
        <mxCell id="aoGiOJrlXkaA1kToDqkz-478" value="count100 &amp;lt;= 4&#39;b1001&lt;div&gt;carry100 &amp;lt;= 1&#39;b1&lt;/div&gt;" style="strokeWidth=2;html=1;shape=mxgraph.flowchart.terminator;whiteSpace=wrap;" vertex="1" parent="1">
          <mxGeometry x="1.8199999999999967" y="1005.5" width="137.12" height="50" as="geometry" />
        </mxCell>
        <mxCell id="aoGiOJrlXkaA1kToDqkz-479" style="edgeStyle=orthogonalEdgeStyle;rounded=0;orthogonalLoop=1;jettySize=auto;html=1;exitX=1;exitY=0.5;exitDx=0;exitDy=0;exitPerimeter=0;strokeWidth=3;" edge="1" parent="1" source="aoGiOJrlXkaA1kToDqkz-480">
          <mxGeometry relative="1" as="geometry">
            <mxPoint x="160" y="555" as="targetPoint" />
            <Array as="points">
              <mxPoint x="-40" y="1031" />
              <mxPoint x="-40" y="1120" />
              <mxPoint x="-300" y="1120" />
              <mxPoint x="-300" y="555" />
              <mxPoint x="148" y="555" />
            </Array>
          </mxGeometry>
        </mxCell>
        <mxCell id="aoGiOJrlXkaA1kToDqkz-480" value="count100 &amp;lt;= count 100 - 4&#39;b1&lt;div&gt;carry100 &amp;lt;= 1&#39;b0&lt;/div&gt;" style="strokeWidth=2;html=1;shape=mxgraph.flowchart.terminator;whiteSpace=wrap;" vertex="1" parent="1">
          <mxGeometry x="-259.06" y="1005.5" width="170.06" height="50" as="geometry" />
        </mxCell>
        <mxCell id="aoGiOJrlXkaA1kToDqkz-481" style="edgeStyle=orthogonalEdgeStyle;rounded=0;orthogonalLoop=1;jettySize=auto;html=1;entryX=0.5;entryY=0;entryDx=0;entryDy=0;entryPerimeter=0;strokeWidth=3;exitX=1;exitY=0.5;exitDx=0;exitDy=0;" edge="1" parent="1" source="aoGiOJrlXkaA1kToDqkz-486">
          <mxGeometry relative="1" as="geometry">
            <mxPoint x="11.000000000000004" y="949.5" as="sourcePoint" />
            <mxPoint x="74" y="1005.5" as="targetPoint" />
          </mxGeometry>
        </mxCell>
        <mxCell id="aoGiOJrlXkaA1kToDqkz-482" value="&lt;span style=&quot;color: rgba(0, 0, 0, 0); font-family: monospace; font-size: 0px; text-align: start; background-color: rgb(251, 251, 251);&quot;&gt;%3CmxGraphModel%3E%3Croot%3E%3CmxCell%20id%3D%220%22%2F%3E%3CmxCell%20id%3D%221%22%20parent%3D%220%22%2F%3E%3CmxCell%20id%3D%222%22%20value%3D%22%26lt%3Bb%26gt%3B%26lt%3Bfont%20style%3D%26quot%3Bfont-size%3A%2013px%3B%26quot%3B%26gt%3BT%26lt%3B%2Ffont%26gt%3B%26lt%3B%2Fb%26gt%3B%22%20style%3D%22edgeLabel%3Bhtml%3D1%3Balign%3Dcenter%3BverticalAlign%3Dmiddle%3Bresizable%3D0%3Bpoints%3D%5B%5D%3B%22%20vertex%3D%221%22%20connectable%3D%220%22%20parent%3D%221%22%3E%3CmxGeometry%20x%3D%221270.5%22%20y%3D%22600.5%22%20as%3D%22geometry%22%2F%3E%3C%2FmxCell%3E%3C%2Froot%3E%3C%2FmxGraphModel%3E&lt;/span&gt;" style="edgeLabel;html=1;align=center;verticalAlign=middle;resizable=0;points=[];" vertex="1" connectable="0" parent="aoGiOJrlXkaA1kToDqkz-481">
          <mxGeometry x="-0.6923" y="2" relative="1" as="geometry">
            <mxPoint y="1" as="offset" />
          </mxGeometry>
        </mxCell>
        <mxCell id="aoGiOJrlXkaA1kToDqkz-483" value="&lt;font style=&quot;font-size: 15px;&quot;&gt;&lt;b&gt;T&lt;/b&gt;&lt;/font&gt;" style="edgeLabel;html=1;align=center;verticalAlign=middle;resizable=0;points=[];" vertex="1" connectable="0" parent="aoGiOJrlXkaA1kToDqkz-481">
          <mxGeometry x="-0.6283" y="-3" relative="1" as="geometry">
            <mxPoint x="-10" y="-15" as="offset" />
          </mxGeometry>
        </mxCell>
        <mxCell id="aoGiOJrlXkaA1kToDqkz-484" style="edgeStyle=orthogonalEdgeStyle;rounded=0;orthogonalLoop=1;jettySize=auto;html=1;entryX=0.441;entryY=-0.04;entryDx=0;entryDy=0;entryPerimeter=0;exitX=0;exitY=0.5;exitDx=0;exitDy=0;strokeWidth=3;" edge="1" parent="1" source="aoGiOJrlXkaA1kToDqkz-486">
          <mxGeometry relative="1" as="geometry">
            <mxPoint x="-140.06" y="948.5" as="sourcePoint" />
            <mxPoint x="-189.06" y="1003.5" as="targetPoint" />
          </mxGeometry>
        </mxCell>
        <mxCell id="aoGiOJrlXkaA1kToDqkz-485" value="&lt;b&gt;&lt;font style=&quot;font-size: 15px;&quot;&gt;F&lt;/font&gt;&lt;/b&gt;" style="edgeLabel;html=1;align=center;verticalAlign=middle;resizable=0;points=[];" vertex="1" connectable="0" parent="aoGiOJrlXkaA1kToDqkz-484">
          <mxGeometry x="-0.7204" y="-1" relative="1" as="geometry">
            <mxPoint x="5" y="-11" as="offset" />
          </mxGeometry>
        </mxCell>
        <mxCell id="aoGiOJrlXkaA1kToDqkz-486" value="count100 == 4&#39;b0" style="shape=hexagon;perimeter=hexagonPerimeter2;whiteSpace=wrap;html=1;fixedSize=1;" vertex="1" parent="1">
          <mxGeometry x="-129" y="928.5" width="129" height="45" as="geometry" />
        </mxCell>
        <mxCell id="aoGiOJrlXkaA1kToDqkz-487" style="edgeStyle=orthogonalEdgeStyle;rounded=0;orthogonalLoop=1;jettySize=auto;html=1;entryX=0.5;entryY=0;entryDx=0;entryDy=0;exitX=0;exitY=0.5;exitDx=0;exitDy=0;strokeWidth=3;" edge="1" parent="1" source="aoGiOJrlXkaA1kToDqkz-477" target="aoGiOJrlXkaA1kToDqkz-486">
          <mxGeometry relative="1" as="geometry">
            <mxPoint x="-60" y="860" as="sourcePoint" />
            <mxPoint x="-109" y="915" as="targetPoint" />
          </mxGeometry>
        </mxCell>
        <mxCell id="aoGiOJrlXkaA1kToDqkz-488" style="edgeStyle=orthogonalEdgeStyle;rounded=0;orthogonalLoop=1;jettySize=auto;html=1;entryX=0.5;entryY=0;entryDx=0;entryDy=0;exitX=1;exitY=0.5;exitDx=0;exitDy=0;strokeWidth=3;" edge="1" parent="1" source="aoGiOJrlXkaA1kToDqkz-467" target="aoGiOJrlXkaA1kToDqkz-476">
          <mxGeometry relative="1" as="geometry">
            <mxPoint x="420" y="871.5" as="sourcePoint" />
            <mxPoint x="464" y="928.5" as="targetPoint" />
          </mxGeometry>
        </mxCell>
        <mxCell id="aoGiOJrlXkaA1kToDqkz-489" value="&lt;span style=&quot;color: rgba(0, 0, 0, 0); font-family: monospace; font-size: 0px; text-align: start; background-color: rgb(251, 251, 251);&quot;&gt;%3CmxGraphModel%3E%3Croot%3E%3CmxCell%20id%3D%220%22%2F%3E%3CmxCell%20id%3D%221%22%20parent%3D%220%22%2F%3E%3CmxCell%20id%3D%222%22%20value%3D%22%26lt%3Bb%26gt%3B%26lt%3Bfont%20style%3D%26quot%3Bfont-size%3A%2013px%3B%26quot%3B%26gt%3BT%26lt%3B%2Ffont%26gt%3B%26lt%3B%2Fb%26gt%3B%22%20style%3D%22edgeLabel%3Bhtml%3D1%3Balign%3Dcenter%3BverticalAlign%3Dmiddle%3Bresizable%3D0%3Bpoints%3D%5B%5D%3B%22%20vertex%3D%221%22%20connectable%3D%220%22%20parent%3D%221%22%3E%3CmxGeometry%20x%3D%221270.5%22%20y%3D%22600.5%22%20as%3D%22geometry%22%2F%3E%3C%2FmxCell%3E%3C%2Froot%3E%3C%2FmxGraphModel%3E&lt;/span&gt;" style="edgeLabel;html=1;align=center;verticalAlign=middle;resizable=0;points=[];" vertex="1" connectable="0" parent="aoGiOJrlXkaA1kToDqkz-488">
          <mxGeometry x="-0.6923" y="2" relative="1" as="geometry">
            <mxPoint y="1" as="offset" />
          </mxGeometry>
        </mxCell>
        <mxCell id="aoGiOJrlXkaA1kToDqkz-490" value="&lt;font style=&quot;font-size: 15px;&quot;&gt;&lt;b&gt;T&lt;/b&gt;&lt;/font&gt;" style="edgeLabel;html=1;align=center;verticalAlign=middle;resizable=0;points=[];" vertex="1" connectable="0" parent="aoGiOJrlXkaA1kToDqkz-488">
          <mxGeometry x="-0.6283" y="-3" relative="1" as="geometry">
            <mxPoint x="-10" y="-15" as="offset" />
          </mxGeometry>
        </mxCell>
        <mxCell id="aoGiOJrlXkaA1kToDqkz-491" value="" style="endArrow=none;html=1;rounded=0;entryX=0;entryY=0.5;entryDx=0;entryDy=0;entryPerimeter=0;strokeWidth=3;" edge="1" parent="1">
          <mxGeometry width="50" height="50" relative="1" as="geometry">
            <mxPoint x="-39.12" y="1029.94" as="sourcePoint" />
            <mxPoint x="0.8800000000000026" y="1029.94" as="targetPoint" />
          </mxGeometry>
        </mxCell>
        <mxCell id="aoGiOJrlXkaA1kToDqkz-492" value="" style="endArrow=none;html=1;rounded=0;entryX=0;entryY=0.5;entryDx=0;entryDy=0;entryPerimeter=0;strokeWidth=3;" edge="1" parent="1">
          <mxGeometry width="50" height="50" relative="1" as="geometry">
            <mxPoint x="410.06" y="1029.94" as="sourcePoint" />
            <mxPoint x="450.06" y="1029.94" as="targetPoint" />
          </mxGeometry>
        </mxCell>
        <mxCell id="aoGiOJrlXkaA1kToDqkz-493" value="" style="endArrow=none;html=1;rounded=0;entryX=1;entryY=0.5;entryDx=0;entryDy=0;exitX=0;exitY=0.5;exitDx=0;exitDy=0;strokeWidth=3;" edge="1" parent="1" source="aoGiOJrlXkaA1kToDqkz-467" target="aoGiOJrlXkaA1kToDqkz-477">
          <mxGeometry width="50" height="50" relative="1" as="geometry">
            <mxPoint x="310" y="860" as="sourcePoint" />
            <mxPoint x="180" y="850" as="targetPoint" />
          </mxGeometry>
        </mxCell>
        <mxCell id="aoGiOJrlXkaA1kToDqkz-494" value="&lt;font style=&quot;font-size: 15px;&quot;&gt;&lt;b&gt;T&lt;/b&gt;&lt;/font&gt;" style="edgeLabel;html=1;align=center;verticalAlign=middle;resizable=0;points=[];" vertex="1" connectable="0" parent="1">
          <mxGeometry x="24.444444444444343" y="948.9999999999995" as="geometry">
            <mxPoint x="-67" y="-102" as="offset" />
          </mxGeometry>
        </mxCell>
        <mxCell id="aoGiOJrlXkaA1kToDqkz-495" value="&lt;b&gt;&lt;font style=&quot;font-size: 15px;&quot;&gt;F&lt;/font&gt;&lt;/b&gt;" style="edgeLabel;html=1;align=center;verticalAlign=middle;resizable=0;points=[];" vertex="1" connectable="0" parent="1">
          <mxGeometry x="250.55442851886073" y="669.9964147764767" as="geometry">
            <mxPoint x="20" y="7" as="offset" />
          </mxGeometry>
        </mxCell>
        <mxCell id="aoGiOJrlXkaA1kToDqkz-496" value="&lt;b&gt;&lt;font style=&quot;font-size: 15px;&quot;&gt;F&lt;/font&gt;&lt;/b&gt;" style="edgeLabel;html=1;align=center;verticalAlign=middle;resizable=0;points=[];" vertex="1" connectable="0" parent="1">
          <mxGeometry x="290.0044285188607" y="839.9964147764767" as="geometry" />
        </mxCell>
        <mxCell id="aoGiOJrlXkaA1kToDqkz-497" value="" style="endArrow=none;html=1;rounded=0;strokeWidth=3;" edge="1" parent="1">
          <mxGeometry width="50" height="50" relative="1" as="geometry">
            <mxPoint x="180" y="1120" as="sourcePoint" />
            <mxPoint x="180" y="860" as="targetPoint" />
          </mxGeometry>
        </mxCell>
        <mxCell id="aoGiOJrlXkaA1kToDqkz-498" value="" style="endArrow=none;html=1;rounded=0;entryX=1;entryY=0.5;entryDx=0;entryDy=0;strokeWidth=3;" edge="1" parent="1">
          <mxGeometry width="50" height="50" relative="1" as="geometry">
            <mxPoint x="450" y="1120" as="sourcePoint" />
            <mxPoint x="-44.620000000000005" y="1120" as="targetPoint" />
          </mxGeometry>
        </mxCell>
        <mxCell id="aoGiOJrlXkaA1kToDqkz-499" value="" style="endArrow=none;dashed=1;html=1;dashPattern=1 3;strokeWidth=2;rounded=0;" edge="1" parent="1">
          <mxGeometry width="50" height="50" relative="1" as="geometry">
            <mxPoint x="-280" y="1090" as="sourcePoint" />
            <mxPoint x="640" y="1090" as="targetPoint" />
          </mxGeometry>
        </mxCell>
        <mxCell id="aoGiOJrlXkaA1kToDqkz-500" value="" style="endArrow=none;dashed=1;html=1;dashPattern=1 3;strokeWidth=2;rounded=0;" edge="1" parent="1">
          <mxGeometry width="50" height="50" relative="1" as="geometry">
            <mxPoint x="-280" y="1090" as="sourcePoint" />
            <mxPoint x="-280" y="570" as="targetPoint" />
          </mxGeometry>
        </mxCell>
        <mxCell id="aoGiOJrlXkaA1kToDqkz-501" value="&lt;b&gt;&lt;font style=&quot;font-size: 20px;&quot;&gt;Counter 100&lt;/font&gt;&lt;/b&gt;" style="whiteSpace=wrap;html=1;aspect=fixed;" vertex="1" parent="1">
          <mxGeometry x="1619.5" y="219" width="210" height="210" as="geometry" />
        </mxCell>
        <mxCell id="aoGiOJrlXkaA1kToDqkz-502" value="" style="endArrow=none;html=1;rounded=0;entryX=0;entryY=0.25;entryDx=0;entryDy=0;strokeWidth=3;" edge="1" parent="1">
          <mxGeometry width="50" height="50" relative="1" as="geometry">
            <mxPoint x="1519.5" y="339" as="sourcePoint" />
            <mxPoint x="1619.5" y="339" as="targetPoint" />
          </mxGeometry>
        </mxCell>
        <mxCell id="aoGiOJrlXkaA1kToDqkz-503" value="" style="endArrow=none;html=1;rounded=0;entryX=0;entryY=0.25;entryDx=0;entryDy=0;strokeWidth=3;" edge="1" parent="1">
          <mxGeometry width="50" height="50" relative="1" as="geometry">
            <mxPoint x="1519.5" y="399" as="sourcePoint" />
            <mxPoint x="1619.5" y="399" as="targetPoint" />
            <Array as="points">
              <mxPoint x="1579.5" y="399" />
            </Array>
          </mxGeometry>
        </mxCell>
        <mxCell id="aoGiOJrlXkaA1kToDqkz-504" value="" style="endArrow=none;html=1;rounded=0;entryX=0;entryY=0.25;entryDx=0;entryDy=0;strokeWidth=3;" edge="1" parent="1">
          <mxGeometry width="50" height="50" relative="1" as="geometry">
            <mxPoint x="1519.5" y="269" as="sourcePoint" />
            <mxPoint x="1619.5" y="269" as="targetPoint" />
          </mxGeometry>
        </mxCell>
        <mxCell id="aoGiOJrlXkaA1kToDqkz-505" value="" style="triangle;whiteSpace=wrap;html=1;" vertex="1" parent="1">
          <mxGeometry x="1619.5" y="379" width="20" height="40" as="geometry" />
        </mxCell>
        <mxCell id="aoGiOJrlXkaA1kToDqkz-506" value="&lt;b&gt;&lt;font style=&quot;font-size: 15px;&quot;&gt;clk&lt;/font&gt;&lt;/b&gt;" style="text;html=1;align=center;verticalAlign=middle;whiteSpace=wrap;rounded=0;" vertex="1" parent="1">
          <mxGeometry x="1469.5" y="379" width="60" height="30" as="geometry" />
        </mxCell>
        <mxCell id="aoGiOJrlXkaA1kToDqkz-507" value="&lt;b&gt;&lt;font style=&quot;font-size: 15px;&quot;&gt;up_down&lt;/font&gt;&lt;/b&gt;" style="text;html=1;align=center;verticalAlign=middle;whiteSpace=wrap;rounded=0;" vertex="1" parent="1">
          <mxGeometry x="1449.5" y="319" width="60" height="30" as="geometry" />
        </mxCell>
        <mxCell id="aoGiOJrlXkaA1kToDqkz-508" value="&lt;b&gt;&lt;font style=&quot;font-size: 15px;&quot;&gt;reset&lt;/font&gt;&lt;/b&gt;" style="text;html=1;align=center;verticalAlign=middle;whiteSpace=wrap;rounded=0;" vertex="1" parent="1">
          <mxGeometry x="1469.5" y="249" width="60" height="30" as="geometry" />
        </mxCell>
        <mxCell id="aoGiOJrlXkaA1kToDqkz-509" value="" style="endArrow=none;html=1;rounded=0;entryX=0;entryY=0.25;entryDx=0;entryDy=0;strokeWidth=3;fillColor=#f8cecc;strokeColor=#b85450;" edge="1" parent="1">
          <mxGeometry width="50" height="50" relative="1" as="geometry">
            <mxPoint x="1829.5" y="264" as="sourcePoint" />
            <mxPoint x="1929.5" y="264" as="targetPoint" />
          </mxGeometry>
        </mxCell>
        <mxCell id="aoGiOJrlXkaA1kToDqkz-510" value="&lt;span style=&quot;font-size: 15px;&quot;&gt;&lt;b&gt;count100&lt;/b&gt;&lt;/span&gt;" style="text;html=1;align=center;verticalAlign=middle;whiteSpace=wrap;rounded=0;" vertex="1" parent="1">
          <mxGeometry x="1939.5" y="249" width="60" height="30" as="geometry" />
        </mxCell>
        <mxCell id="aoGiOJrlXkaA1kToDqkz-511" value="" style="endArrow=none;html=1;rounded=0;entryX=0;entryY=0.25;entryDx=0;entryDy=0;strokeWidth=3;fillColor=#f8cecc;strokeColor=#b85450;" edge="1" parent="1">
          <mxGeometry width="50" height="50" relative="1" as="geometry">
            <mxPoint x="1829.5" y="304" as="sourcePoint" />
            <mxPoint x="1929.5" y="304" as="targetPoint" />
          </mxGeometry>
        </mxCell>
        <mxCell id="aoGiOJrlXkaA1kToDqkz-512" value="&lt;b&gt;&lt;font style=&quot;font-size: 15px;&quot;&gt;count10&lt;/font&gt;&lt;/b&gt;" style="text;html=1;align=center;verticalAlign=middle;whiteSpace=wrap;rounded=0;" vertex="1" parent="1">
          <mxGeometry x="1939.5" y="289" width="60" height="30" as="geometry" />
        </mxCell>
        <mxCell id="aoGiOJrlXkaA1kToDqkz-513" value="" style="endArrow=none;html=1;rounded=0;entryX=0;entryY=0.25;entryDx=0;entryDy=0;strokeWidth=3;fillColor=#f8cecc;strokeColor=#b85450;" edge="1" parent="1">
          <mxGeometry width="50" height="50" relative="1" as="geometry">
            <mxPoint x="1830.47" y="359" as="sourcePoint" />
            <mxPoint x="1930.47" y="359" as="targetPoint" />
          </mxGeometry>
        </mxCell>
        <mxCell id="aoGiOJrlXkaA1kToDqkz-514" value="&lt;b&gt;&lt;font style=&quot;font-size: 15px;&quot;&gt;carry10&lt;/font&gt;&lt;/b&gt;" style="text;html=1;align=center;verticalAlign=middle;whiteSpace=wrap;rounded=0;" vertex="1" parent="1">
          <mxGeometry x="1939.5" y="344" width="60" height="30" as="geometry" />
        </mxCell>
        <mxCell id="aoGiOJrlXkaA1kToDqkz-515" value="" style="endArrow=none;html=1;rounded=0;entryX=0;entryY=0.25;entryDx=0;entryDy=0;strokeWidth=3;fillColor=#f8cecc;strokeColor=#b85450;" edge="1" parent="1">
          <mxGeometry width="50" height="50" relative="1" as="geometry">
            <mxPoint x="1830.47" y="408" as="sourcePoint" />
            <mxPoint x="1930.47" y="408" as="targetPoint" />
          </mxGeometry>
        </mxCell>
        <mxCell id="aoGiOJrlXkaA1kToDqkz-516" value="&lt;b&gt;&lt;font style=&quot;font-size: 15px;&quot;&gt;carry100&lt;/font&gt;&lt;/b&gt;" style="text;html=1;align=center;verticalAlign=middle;whiteSpace=wrap;rounded=0;" vertex="1" parent="1">
          <mxGeometry x="1939.5" y="393" width="60" height="30" as="geometry" />
        </mxCell>
        <mxCell id="aoGiOJrlXkaA1kToDqkz-517" value="a/&lt;div&gt;z = 0&lt;/div&gt;" style="ellipse;whiteSpace=wrap;html=1;" vertex="1" parent="1">
          <mxGeometry x="960" y="20" width="120" height="80" as="geometry" />
        </mxCell>
        <mxCell id="aoGiOJrlXkaA1kToDqkz-518" style="edgeStyle=orthogonalEdgeStyle;rounded=0;orthogonalLoop=1;jettySize=auto;html=1;entryX=0.5;entryY=0;entryDx=0;entryDy=0;curved=1;" edge="1" parent="1" source="aoGiOJrlXkaA1kToDqkz-519" target="aoGiOJrlXkaA1kToDqkz-517">
          <mxGeometry relative="1" as="geometry" />
        </mxCell>
        <mxCell id="aoGiOJrlXkaA1kToDqkz-519" value="&lt;b&gt;reset&lt;/b&gt;" style="text;html=1;align=center;verticalAlign=middle;whiteSpace=wrap;rounded=0;" vertex="1" parent="1">
          <mxGeometry x="920" y="-50" width="60" height="30" as="geometry" />
        </mxCell>
        <mxCell id="aoGiOJrlXkaA1kToDqkz-520" value="" style="curved=1;endArrow=classic;html=1;rounded=0;entryX=0;entryY=1;entryDx=0;entryDy=0;" edge="1" parent="1">
          <mxGeometry width="50" height="50" relative="1" as="geometry">
            <mxPoint x="1010" y="100" as="sourcePoint" />
            <mxPoint x="967.5735931288073" y="78.28427124746167" as="targetPoint" />
            <Array as="points">
              <mxPoint x="1010" y="140" />
              <mxPoint x="960" y="140" />
              <mxPoint x="950" y="110" />
            </Array>
          </mxGeometry>
        </mxCell>
        <mxCell id="aoGiOJrlXkaA1kToDqkz-521" value="&lt;b&gt;w = 0&lt;/b&gt;" style="text;html=1;align=center;verticalAlign=middle;whiteSpace=wrap;rounded=0;" vertex="1" parent="1">
          <mxGeometry x="930" y="140" width="60" height="30" as="geometry" />
        </mxCell>
        <mxCell id="aoGiOJrlXkaA1kToDqkz-522" style="edgeStyle=orthogonalEdgeStyle;rounded=0;orthogonalLoop=1;jettySize=auto;html=1;entryX=1;entryY=1;entryDx=0;entryDy=0;curved=1;exitX=0;exitY=1;exitDx=0;exitDy=0;" edge="1" parent="1" source="aoGiOJrlXkaA1kToDqkz-523" target="aoGiOJrlXkaA1kToDqkz-517">
          <mxGeometry relative="1" as="geometry" />
        </mxCell>
        <mxCell id="aoGiOJrlXkaA1kToDqkz-523" value="b/&lt;div&gt;z = 0&lt;/div&gt;" style="ellipse;whiteSpace=wrap;html=1;" vertex="1" parent="1">
          <mxGeometry x="1190" y="20" width="120" height="80" as="geometry" />
        </mxCell>
        <mxCell id="aoGiOJrlXkaA1kToDqkz-524" style="edgeStyle=orthogonalEdgeStyle;rounded=0;orthogonalLoop=1;jettySize=auto;html=1;entryX=0;entryY=0.5;entryDx=0;entryDy=0;curved=1;exitX=1;exitY=0.5;exitDx=0;exitDy=0;" edge="1" parent="1" source="aoGiOJrlXkaA1kToDqkz-517" target="aoGiOJrlXkaA1kToDqkz-523">
          <mxGeometry relative="1" as="geometry">
            <mxPoint x="1170" y="10" as="sourcePoint" />
          </mxGeometry>
        </mxCell>
        <mxCell id="aoGiOJrlXkaA1kToDqkz-525" value="&lt;b&gt;w = 1&lt;/b&gt;" style="text;html=1;align=center;verticalAlign=middle;whiteSpace=wrap;rounded=0;" vertex="1" parent="1">
          <mxGeometry x="1110" y="30" width="60" height="30" as="geometry" />
        </mxCell>
        <mxCell id="aoGiOJrlXkaA1kToDqkz-526" value="&lt;b&gt;w = 1&lt;/b&gt;" style="text;html=1;align=center;verticalAlign=middle;whiteSpace=wrap;rounded=0;" vertex="1" parent="1">
          <mxGeometry x="1110" y="90" width="60" height="30" as="geometry" />
        </mxCell>
        <mxCell id="aoGiOJrlXkaA1kToDqkz-527" style="edgeStyle=orthogonalEdgeStyle;rounded=0;orthogonalLoop=1;jettySize=auto;html=1;entryX=1;entryY=0.5;entryDx=0;entryDy=0;curved=1;" edge="1" parent="1" source="aoGiOJrlXkaA1kToDqkz-529" target="aoGiOJrlXkaA1kToDqkz-536">
          <mxGeometry relative="1" as="geometry" />
        </mxCell>
        <mxCell id="aoGiOJrlXkaA1kToDqkz-528" style="edgeStyle=orthogonalEdgeStyle;rounded=0;orthogonalLoop=1;jettySize=auto;html=1;entryX=1;entryY=0;entryDx=0;entryDy=0;curved=1;" edge="1" parent="1" source="aoGiOJrlXkaA1kToDqkz-529" target="aoGiOJrlXkaA1kToDqkz-534">
          <mxGeometry relative="1" as="geometry" />
        </mxCell>
        <mxCell id="aoGiOJrlXkaA1kToDqkz-529" value="c/&lt;div&gt;z = 0&lt;/div&gt;" style="ellipse;whiteSpace=wrap;html=1;" vertex="1" parent="1">
          <mxGeometry x="1190" y="160" width="120" height="80" as="geometry" />
        </mxCell>
        <mxCell id="aoGiOJrlXkaA1kToDqkz-530" style="edgeStyle=orthogonalEdgeStyle;rounded=0;orthogonalLoop=1;jettySize=auto;html=1;entryX=0.5;entryY=0;entryDx=0;entryDy=0;curved=1;exitX=0.5;exitY=1;exitDx=0;exitDy=0;" edge="1" parent="1" source="aoGiOJrlXkaA1kToDqkz-523" target="aoGiOJrlXkaA1kToDqkz-529">
          <mxGeometry relative="1" as="geometry">
            <mxPoint x="1190" y="130" as="sourcePoint" />
          </mxGeometry>
        </mxCell>
        <mxCell id="aoGiOJrlXkaA1kToDqkz-531" value="&lt;b&gt;w = 0&lt;/b&gt;" style="text;html=1;align=center;verticalAlign=middle;whiteSpace=wrap;rounded=0;" vertex="1" parent="1">
          <mxGeometry x="1240" y="110" width="60" height="30" as="geometry" />
        </mxCell>
        <mxCell id="aoGiOJrlXkaA1kToDqkz-532" style="edgeStyle=orthogonalEdgeStyle;rounded=0;orthogonalLoop=1;jettySize=auto;html=1;entryX=1;entryY=0.5;entryDx=0;entryDy=0;exitX=1;exitY=0.5;exitDx=0;exitDy=0;curved=1;" edge="1" parent="1" source="aoGiOJrlXkaA1kToDqkz-534" target="aoGiOJrlXkaA1kToDqkz-523">
          <mxGeometry relative="1" as="geometry" />
        </mxCell>
        <mxCell id="aoGiOJrlXkaA1kToDqkz-533" style="edgeStyle=orthogonalEdgeStyle;rounded=0;orthogonalLoop=1;jettySize=auto;html=1;entryX=0;entryY=1;entryDx=0;entryDy=0;curved=1;" edge="1" parent="1" source="aoGiOJrlXkaA1kToDqkz-534" target="aoGiOJrlXkaA1kToDqkz-529">
          <mxGeometry relative="1" as="geometry" />
        </mxCell>
        <mxCell id="aoGiOJrlXkaA1kToDqkz-534" value="d/&lt;div&gt;z = 1&lt;/div&gt;" style="ellipse;whiteSpace=wrap;html=1;" vertex="1" parent="1">
          <mxGeometry x="1120" y="284" width="120" height="80" as="geometry" />
        </mxCell>
        <mxCell id="aoGiOJrlXkaA1kToDqkz-535" style="edgeStyle=orthogonalEdgeStyle;rounded=0;orthogonalLoop=1;jettySize=auto;html=1;entryX=0;entryY=1;entryDx=0;entryDy=0;exitX=1;exitY=1;exitDx=0;exitDy=0;curved=1;" edge="1" parent="1" source="aoGiOJrlXkaA1kToDqkz-536" target="aoGiOJrlXkaA1kToDqkz-534">
          <mxGeometry relative="1" as="geometry" />
        </mxCell>
        <mxCell id="aoGiOJrlXkaA1kToDqkz-536" value="e/&lt;div&gt;z = 0&lt;/div&gt;" style="ellipse;whiteSpace=wrap;html=1;" vertex="1" parent="1">
          <mxGeometry x="940" y="265" width="120" height="80" as="geometry" />
        </mxCell>
        <mxCell id="aoGiOJrlXkaA1kToDqkz-537" style="edgeStyle=orthogonalEdgeStyle;rounded=0;orthogonalLoop=1;jettySize=auto;html=1;entryX=0.583;entryY=0.988;entryDx=0;entryDy=0;entryPerimeter=0;curved=1;" edge="1" parent="1" source="aoGiOJrlXkaA1kToDqkz-536" target="aoGiOJrlXkaA1kToDqkz-517">
          <mxGeometry relative="1" as="geometry" />
        </mxCell>
        <mxCell id="aoGiOJrlXkaA1kToDqkz-538" value="&lt;b&gt;w = 0&lt;/b&gt;" style="text;html=1;align=center;verticalAlign=middle;whiteSpace=wrap;rounded=0;" vertex="1" parent="1">
          <mxGeometry x="1070" y="220" width="60" height="30" as="geometry" />
        </mxCell>
        <mxCell id="aoGiOJrlXkaA1kToDqkz-539" value="&lt;b&gt;w = 1&lt;/b&gt;" style="text;html=1;align=center;verticalAlign=middle;whiteSpace=wrap;rounded=0;" vertex="1" parent="1">
          <mxGeometry x="1220" y="260" width="60" height="30" as="geometry" />
        </mxCell>
        <mxCell id="aoGiOJrlXkaA1kToDqkz-540" value="&lt;b&gt;w = 0&lt;/b&gt;" style="text;html=1;align=center;verticalAlign=middle;whiteSpace=wrap;rounded=0;" vertex="1" parent="1">
          <mxGeometry x="1150" y="235" width="60" height="30" as="geometry" />
        </mxCell>
        <mxCell id="aoGiOJrlXkaA1kToDqkz-541" value="&lt;b&gt;w = 1&lt;/b&gt;" style="text;html=1;align=center;verticalAlign=middle;whiteSpace=wrap;rounded=0;" vertex="1" parent="1">
          <mxGeometry x="1330" y="180" width="60" height="30" as="geometry" />
        </mxCell>
        <mxCell id="aoGiOJrlXkaA1kToDqkz-542" value="&lt;b&gt;w = 1&lt;/b&gt;" style="text;html=1;align=center;verticalAlign=middle;whiteSpace=wrap;rounded=0;" vertex="1" parent="1">
          <mxGeometry x="1050" y="350" width="60" height="30" as="geometry" />
        </mxCell>
        <mxCell id="aoGiOJrlXkaA1kToDqkz-543" value="&lt;b&gt;w = 0&lt;/b&gt;" style="text;html=1;align=center;verticalAlign=middle;whiteSpace=wrap;rounded=0;" vertex="1" parent="1">
          <mxGeometry x="950" y="180" width="60" height="30" as="geometry" />
        </mxCell>
      </root>
    </mxGraphModel>
  </diagram>
</mxfile>
